<mxfile host="app.diagrams.net" modified="2021-11-21T09:19:04.003Z" agent="5.0 (Windows NT 10.0; Win64; x64) AppleWebKit/537.36 (KHTML, like Gecko) Chrome/96.0.4664.45 Safari/537.36" etag="5VJvpu5k0TIuc5Bh1K2o" version="15.8.3" type="github">
  <diagram id="z4waDR1mDFnfHfvtplxa" name="Page-1">
    <mxGraphModel dx="868" dy="450" grid="1" gridSize="10" guides="1" tooltips="1" connect="1" arrows="1" fold="1" page="1" pageScale="1" pageWidth="850" pageHeight="1100" math="0" shadow="0">
      <root>
        <mxCell id="0" />
        <mxCell id="1" parent="0" />
        <mxCell id="VxzwEv1jySivDC1vR7L0-1" value="Enter input value" style="rounded=0;whiteSpace=wrap;html=1;" vertex="1" parent="1">
          <mxGeometry x="60" y="50" width="120" height="60" as="geometry" />
        </mxCell>
        <mxCell id="VxzwEv1jySivDC1vR7L0-3" style="edgeStyle=orthogonalEdgeStyle;rounded=0;orthogonalLoop=1;jettySize=auto;html=1;exitX=0.5;exitY=0;exitDx=0;exitDy=0;" edge="1" parent="1" source="VxzwEv1jySivDC1vR7L0-2">
          <mxGeometry relative="1" as="geometry">
            <mxPoint x="115" y="170" as="targetPoint" />
          </mxGeometry>
        </mxCell>
        <mxCell id="VxzwEv1jySivDC1vR7L0-6" style="edgeStyle=orthogonalEdgeStyle;rounded=0;orthogonalLoop=1;jettySize=auto;html=1;exitX=0.5;exitY=1;exitDx=0;exitDy=0;" edge="1" parent="1" source="VxzwEv1jySivDC1vR7L0-2">
          <mxGeometry relative="1" as="geometry">
            <mxPoint x="130" y="230" as="targetPoint" />
          </mxGeometry>
        </mxCell>
        <mxCell id="VxzwEv1jySivDC1vR7L0-2" value="Enter present unit and unit to be changed" style="rounded=0;whiteSpace=wrap;html=1;" vertex="1" parent="1">
          <mxGeometry x="35" y="140" width="150" height="60" as="geometry" />
        </mxCell>
        <mxCell id="VxzwEv1jySivDC1vR7L0-11" value="Covert to desired&amp;nbsp; form" style="rounded=0;whiteSpace=wrap;html=1;" vertex="1" parent="1">
          <mxGeometry x="65" y="230" width="120" height="60" as="geometry" />
        </mxCell>
        <mxCell id="VxzwEv1jySivDC1vR7L0-22" value="" style="shape=singleArrow;direction=south;whiteSpace=wrap;html=1;" vertex="1" parent="1">
          <mxGeometry x="80" y="110" width="60" height="30" as="geometry" />
        </mxCell>
        <mxCell id="VxzwEv1jySivDC1vR7L0-23" value="Sumit desired value" style="shape=ext;double=1;rounded=0;whiteSpace=wrap;html=1;" vertex="1" parent="1">
          <mxGeometry x="60" y="310" width="120" height="40" as="geometry" />
        </mxCell>
        <mxCell id="VxzwEv1jySivDC1vR7L0-26" value="" style="shape=singleArrow;direction=south;whiteSpace=wrap;html=1;" vertex="1" parent="1">
          <mxGeometry x="80" y="290" width="60" height="20" as="geometry" />
        </mxCell>
        <mxCell id="VxzwEv1jySivDC1vR7L0-27" style="edgeStyle=orthogonalEdgeStyle;rounded=0;orthogonalLoop=1;jettySize=auto;html=1;exitX=0;exitY=0.5;exitDx=0;exitDy=0;exitPerimeter=0;entryX=0;entryY=0;entryDx=0;entryDy=39;entryPerimeter=0;" edge="1" parent="1" source="VxzwEv1jySivDC1vR7L0-26" target="VxzwEv1jySivDC1vR7L0-26">
          <mxGeometry relative="1" as="geometry" />
        </mxCell>
      </root>
    </mxGraphModel>
  </diagram>
</mxfile>
